<svg width="446" height="403" fill="none" xmlns="http://www.w3.org/2000/svg"><path opacity=".45" d="M101.718 402.094c50.654 0 91.717-7.778 91.717-17.373 0-9.594-41.063-17.372-91.717-17.372-50.655 0-91.718 7.778-91.718 17.372 0 9.595 41.063 17.373 91.718 17.373z" fill="#C8C8C8"/><path d="M440.919 92.666H142.17a4.393 4.393 0 00-4.393 4.393V294.76a4.393 4.393 0 004.393 4.394h298.749a4.393 4.393 0 004.393-4.394V97.06a4.393 4.393 0 00-4.393-4.394z" fill="#D3D3D3"/><path d="M155.531 113.064a5.531 5.531 0 005.531-5.532 5.531 5.531 0 10-5.531 5.532z" fill="#0E0E0E"/><path d="M171.594 113.064a5.532 5.532 0 10-.002-11.064 5.532 5.532 0 00.002 11.064zM445.137 232.696H290.271v66.27h149.71a5.156 5.156 0 005.156-5.157v-61.113zM442.998 93H293.747A2.747 2.747 0 00291 95.748l-.006 41.504a2.747 2.747 0 002.747 2.748H445.74l.005-44.252A2.747 2.747 0 00442.998 93z" fill="#DD1350"/><path d="M349 125.544V108.41h10.587v3.756h-5.996v2.973h5.654v3.675h-5.654v2.891h5.996v3.839H349zM362.274 120.008c.724.796 1.416 1.385 2.077 1.767.693.39 1.369.585 2.03.585.622 0 1.137-.168 1.546-.503.41-.336.614-.761.614-1.276 0-.561-.169-1.002-.507-1.322-.362-.305-1.161-.621-2.396-.948-1.684-.453-2.876-1.038-3.577-1.756-.708-.733-1.062-1.732-1.062-2.996 0-1.638.555-2.973 1.664-4.002 1.094-1.038 2.526-1.557 4.297-1.557.999 0 1.904.129 2.714.386.85.258 1.657.64 2.42 1.147l-1.475 3.359a6.201 6.201 0 00-1.653-1.03 4.47 4.47 0 00-1.664-.339c-.551 0-1.011.136-1.381.409a1.213 1.213 0 00-.531 1.03c0 .414.153.757.46 1.03.323.258.929.503 1.818.738a.771.771 0 01.082.023c.024 0 .059.008.107.023 1.92.507 3.186 1.077 3.8 1.709.402.398.716.901.944 1.51.205.577.307 1.233.307 1.966 0 1.81-.602 3.273-1.806 4.389-1.211 1.1-2.817 1.65-4.815 1.65-1.228 0-2.325-.199-3.293-.597-.96-.398-1.908-1.038-2.845-1.919l2.125-3.476z" fill="#fff"/><path d="M377.412 125.544v-7.818l-6.043-9.316h5.406l2.325 4.412a.36.36 0 01.071.14c.244.445.413.882.508 1.311.07-.374.24-.796.507-1.264l.095-.187 2.301-4.412H388l-6.043 9.316v7.818h-4.545z" fill="#fff"/><circle cx="330.5" cy="137.5" r="11.5" fill="#D3D3D3"/><path d="M290.991 232.702l-153.235-.546-.25 61.05a5.162 5.162 0 005.138 5.182l147.798.664.549-66.35z" fill="#DD1350"/><path d="M323.838 47.99c-1.956 15.675-10.043 48.059-43.246 62.488l4.852 8.087s46.206-14.558 57.349-51.762c4.998-16.742 1.812-24.005-3.234-26.949a10.641 10.641 0 00-15.721 8.137z" fill="#5B5B5B"/><path d="M328.076 23.21l7.941 9.689 6.986-7.506-12.534-11.129-2.393 8.945z" fill="#CD8E6A"/><path d="M322.48 5.416a7.39 7.39 0 00-8.265 9.253c1.472 5.661 4.642 13.377 10.691 10.724 9.235-4.044 4.383-16.176 4.383-16.176a13.506 13.506 0 00-6.809-3.801z" fill="#CD8E6A"/><path d="M310.69 7.47s-2.556 8.218 6.339 6.196c8.896-2.022 8.216-4.853 8.216-4.853s.68 9.705 5.127 7.554c4.448-2.151 1.893-7.44 0-11.064-1.892-3.624-3.008-4.707-8.086-5.241-5.079-.534-10.966 2.426-11.596 7.408z" fill="#0E0E0E"/><path d="M325.391 14.474s-.372-2.766 2.296-2.232c2.669.534 1.618 4.384 0 4.659-1.617.275-2.296-2.427-2.296-2.427z" fill="#CD8E6A"/><path d="M90.93 224.775l3.962 11.89-9.396 5.968-3.396-20.607 8.83 2.749z" fill="#F4A28C"/><path d="M78.881 210.541a7.404 7.404 0 015.565-4.347 7.409 7.409 0 016.678 2.292c3.995 4.271 8.814 11.081 3.364 14.769-8.362 5.661-16.028-4.853-16.028-4.853a13.507 13.507 0 01.421-7.861z" fill="#F4A28C"/><path d="M84.995 217.836s-2.151-1.795-3.122.744c-.97 2.54 2.814 3.785 3.946 2.491 1.132-1.294-.825-3.235-.825-3.235z" fill="#F4A28C"/><path d="M330.146 128.271s-1.763 8.185 1.391 7.894c3.154-.291 3.881-11.614 3.881-11.614l-5.272 3.72zM358.53 137.734s-1.763 8.168 1.39 7.893c3.154-.274 3.866-11.614 3.866-11.614l-5.256 3.721z" fill="#5B5B5B"/><path d="M403.2 89.077s-5.435 2.346-3.429 5.03c2.005 2.686 8.879-.938 8.879-.938l.42-4.092h-5.87z" fill="#CD8E6A"/><path d="M281.255 111.432s-8.928.728-7.052 2.782a9.597 9.597 0 003.396 2.604s-6.469 7.231-1.762 8.671c4.706 1.439 9.299-7.571 9.299-7.571l-3.881-6.486z" fill="#F4A28C"/><path d="M83.393 240.288s-27.769 16.823-31.408 56.292a13.685 13.685 0 0010.367 14.558l32.54 8.007-11.499-78.857z" fill="#5B5B5B"/><path opacity=".2" d="M83.393 240.288s-27.769 16.823-31.408 56.292a13.685 13.685 0 0010.367 14.558l32.54 8.007-11.499-78.857z" fill="#7C7C7C"/><path d="M86.175 214.746s4.432 12.715-3.315 11.922c-7.747-.793-3.494-6.26-7.343-11.922-3.849-5.661-1.811-9.479 4.043-14.444 2.701-2.281 4.513-3.333 5.58-4.546a4.164 4.164 0 013.758-1.434 4.165 4.165 0 013.213 2.421c2.005 4.885 2.021 11.42-5.936 18.003z" fill="#0E0E0E"/><circle cx="234.98" cy="237.098" r="14.828" fill="#D3D3D3"/><path d="M84.751 285.407L5.885 308.385a5.168 5.168 0 00-3.559 6.251l9.092 35.281a5.168 5.168 0 006.371 3.694l81.67-22.419-14.708-45.785z" fill="#DD1350"/><path opacity=".08" d="M67.253 289.786L78.5 317v20l9-2.5 2.961-20.127-13.812-27.03-9.396 2.443z" fill="#000"/><path opacity=".08" d="M94.44 235.273s-18.664 60.126 35.225 64.105l-2.507 11.905-39.9 3.09a103.54 103.54 0 01-13.471-53.089s.34-15.334 11.143-22.112a24.41 24.41 0 019.51-3.899z" fill="#000"/><path d="M78.024 379.885l-5.515 4.06a1.212 1.212 0 00.712 2.2h9.25a1.231 1.231 0 001.213-1.213v-5.047h-5.66zM121.675 379.885l5.192 4.06a1.228 1.228 0 01-.044 1.973c-.209.149-.46.228-.716.227h-6.583a3.526 3.526 0 01-3.509-3.527v-2.733h5.66z" fill="#5B5B5B"/><path d="M210.676 228.059s6.922 2.265 8.393-7.926l-11.757 2.766 3.364 5.16z" fill="#F4A28C"/><path d="M377.905 22.886c8.28 2.944 21.219 8.8 29.952 18.715a25.879 25.879 0 016.162 20.85l-3.914 26.626h-9.299l.42-24.264a11.941 11.941 0 00-8.393-11.5c-10.044-3.074-25.457-9.9-25.473-22.84a7.927 7.927 0 0110.545-7.587z" fill="#5B5B5B"/><path d="M325.237 275.236v-17.273h4.92c.952 0 1.754.02 2.407.059.661.04 1.204.106 1.628.201a5.316 5.316 0 011.959.896 4.465 4.465 0 011.428 1.817c.338.708.507 1.511.507 2.407 0 1.33-.33 2.419-.991 3.269-.645.849-1.601 1.404-2.867 1.663l4.707 6.961h-5.321l-3.964-6.76v6.76h-4.413zm4.413-9.108h.873c1.03 0 1.774-.169 2.23-.508.464-.377.696-.924.696-1.64 0-.865-.216-1.478-.649-1.84-.44-.37-1.176-.555-2.206-.555h-.944v4.543zm17.799 1.616c-.07-.66-.326-1.199-.767-1.616-.44-.417-.979-.626-1.616-.626-.669 0-1.211.185-1.628.555-.433.417-.704.979-.814 1.687h4.825zm4.142 2.372h-9.062c.024.928.256 1.636.696 2.123.457.504 1.117.756 1.983.756.629 0 1.168-.122 1.616-.366.456-.26.787-.614.991-1.062l3.162 1.274c-.37.905-1.038 1.605-2.006 2.1-.959.504-2.135.755-3.527.755-2.077 0-3.745-.582-5.003-1.746-1.251-1.132-1.876-2.647-1.876-4.542 0-1.849.625-3.394 1.876-4.637 1.251-1.219 2.839-1.829 4.767-1.829 1.966 0 3.519.618 4.66 1.853a6.139 6.139 0 011.298 2.23c.283.841.425 1.805.425 2.89v.201zm2.272-.46c.724.802 1.416 1.396 2.077 1.781.692.393 1.368.59 2.029.59.621 0 1.137-.169 1.546-.507.409-.338.613-.767.613-1.286 0-.567-.169-1.011-.507-1.334-.362-.306-1.16-.625-2.395-.955-1.684-.456-2.875-1.046-3.575-1.77-.708-.739-1.062-1.746-1.062-3.02 0-1.652.554-2.997 1.663-4.036 1.094-1.046 2.525-1.569 4.295-1.569.999 0 1.904.13 2.714.39a9.103 9.103 0 012.418 1.156l-1.474 3.386a6.204 6.204 0 00-1.652-1.038 4.44 4.44 0 00-1.664-.342c-.55 0-1.011.137-1.38.413a1.223 1.223 0 00-.531 1.038c0 .417.153.763.46 1.038.322.26.928.507 1.817.743.031.008.059.016.083.024a.37.37 0 01.106.024c1.919.511 3.185 1.085 3.799 1.722.401.401.716.909.944 1.522.204.582.307 1.243.307 1.982 0 1.825-.602 3.3-1.806 4.425-1.211 1.109-2.816 1.663-4.813 1.663-1.228 0-2.325-.2-3.292-.601-.96-.401-1.908-1.046-2.844-1.935l2.124-3.504zm20.324-2.419c-.409-.362-.802-.625-1.18-.791-.338-.165-.735-.247-1.191-.247-.842 0-1.503.275-1.982.826-.496.542-.744 1.289-.744 2.241 0 .913.256 1.636.767 2.171.496.551 1.184.826 2.065.826.417 0 .818-.086 1.203-.259a3.517 3.517 0 001.062-.779v3.646a8.74 8.74 0 01-1.522.637 6.832 6.832 0 01-1.545.188c-1.841 0-3.324-.589-4.448-1.769a5.648 5.648 0 01-.956-1.298 6.8 6.8 0 01-.566-1.534 8.091 8.091 0 01-.189-1.805c0-1.88.574-3.406 1.722-4.578 1.157-1.18 2.651-1.77 4.484-1.77.574 0 1.121.063 1.64.189.503.126.963.311 1.38.555v3.551zm1.4 7.999V263.32h3.964v2.808c.417-1.031.971-1.797 1.663-2.301.716-.511 1.578-.767 2.584-.767.228 0 .398.008.508.024l.236.023c.07 0 .161.008.271.024l-.401 3.823a5.982 5.982 0 00-.755-.201 7.952 7.952 0 00-.696-.047c-1.023 0-1.813.315-2.372.944-.55.621-.826 1.506-.826 2.655v4.931h-4.176zm9.481 0V263.32h4.2v11.916h-4.2zm.531-14.984h.023c0-.44.154-.802.461-1.085.306-.307.676-.46 1.109-.46.456 0 .829.145 1.121.436.298.291.448.661.448 1.109 0 .456-.154.834-.46 1.133-.299.307-.669.46-1.109.46a1.5 1.5 0 01-1.133-.484 1.485 1.485 0 01-.46-1.109zm9.658 9.061c0 .929.248 1.664.743 2.207.457.527 1.117.79 1.983.79.857 0 1.526-.263 2.005-.79.48-.551.72-1.286.72-2.207 0-.936-.24-1.667-.72-2.194-.487-.535-1.156-.802-2.005-.802-.858 0-1.518.267-1.983.802-.495.519-.743 1.251-.743 2.194zm-3.728 11.185v-17.155h3.87v1.983c.511-.763 1.113-1.357 1.805-1.782.653-.385 1.396-.578 2.23-.578.841 0 1.597.141 2.265.425a4.643 4.643 0 011.746 1.262c.984 1.125 1.475 2.678 1.475 4.66 0 1.904-.491 3.442-1.475 4.614-.503.597-1.073 1.042-1.71 1.333-.63.291-1.349.436-2.16.436-1.014 0-1.836-.184-2.465-.554-.606-.354-1.169-.968-1.688-1.841.04.189.071.48.095.873.015.229.023.645.023 1.251v5.073h-4.011zm15.392-5.262l-.023-8.943h-1.782v-2.973h1.782v-3.552h4.165v3.552h1.758v2.973h-1.758v8.943h-4.142zM182.453 275.236v-17.273h4.92c.952 0 1.754.02 2.407.059.661.04 1.203.106 1.628.201a5.323 5.323 0 011.959.896 4.455 4.455 0 011.427 1.817c.339.708.508 1.511.508 2.407 0 1.33-.331 2.419-.991 3.269-.645.849-1.601 1.404-2.867 1.663l4.707 6.961h-5.321l-3.964-6.76v6.76h-4.413zm4.413-9.108h.873c1.03 0 1.773-.169 2.23-.508.464-.377.696-.924.696-1.64 0-.865-.216-1.478-.649-1.84-.441-.37-1.176-.555-2.206-.555h-.944v4.543zm17.799 1.616c-.071-.66-.326-1.199-.767-1.616-.44-.417-.979-.626-1.616-.626-.669 0-1.212.185-1.629.555-.432.417-.703.979-.814 1.687h4.826zm4.141 2.372h-9.061c.024.928.256 1.636.696 2.123.456.504 1.117.756 1.982.756.63 0 1.168-.122 1.617-.366.456-.26.786-.614.991-1.062l3.162 1.274c-.37.905-1.038 1.605-2.006 2.1-.96.504-2.136.755-3.528.755-2.076 0-3.744-.582-5.002-1.746-1.251-1.132-1.876-2.647-1.876-4.542 0-1.849.625-3.394 1.876-4.637 1.25-1.219 2.839-1.829 4.766-1.829 1.967 0 3.52.618 4.661 1.853a6.153 6.153 0 011.298 2.23c.283.841.424 1.805.424 2.89v.201zm10.296-.85c0-.944-.248-1.675-.744-2.194-.503-.551-1.179-.826-2.029-.826-.849 0-1.518.267-2.006.802-.503.551-.755 1.29-.755 2.218 0 .936.252 1.672.755 2.207.48.527 1.149.79 2.006.79.85 0 1.522-.263 2.018-.79.503-.527.755-1.263.755-2.207zm3.693-5.946v11.916h-3.858v-1.935c-.559.826-1.184 1.432-1.876 1.817-.685.386-1.487.578-2.407.578-1.597 0-2.867-.582-3.811-1.746a6.08 6.08 0 01-1.062-2.029c-.244-.779-.366-1.656-.366-2.631 0-1.951.5-3.496 1.499-4.637.998-1.141 2.336-1.711 4.011-1.711.897 0 1.668.193 2.313.578.652.37 1.211.956 1.675 1.758v-1.958h3.882zm10.519 3.917c-.409-.362-.802-.625-1.18-.791-.338-.165-.735-.247-1.191-.247-.842 0-1.503.275-1.982.826-.496.542-.744 1.289-.744 2.241 0 .913.256 1.636.767 2.171.496.551 1.184.826 2.065.826.417 0 .818-.086 1.203-.259a3.517 3.517 0 001.062-.779v3.646a8.74 8.74 0 01-1.522.637 6.832 6.832 0 01-1.545.188c-1.841 0-3.324-.589-4.448-1.769a5.648 5.648 0 01-.956-1.298 6.8 6.8 0 01-.566-1.534 8.091 8.091 0 01-.189-1.805c0-1.88.574-3.406 1.722-4.578 1.157-1.18 2.651-1.77 4.484-1.77.574 0 1.121.063 1.64.189.503.126.963.311 1.38.555v3.551zm2.049 7.999l-.024-8.943h-1.782v-2.973h1.782v-3.552h4.165v3.552h1.758v2.973h-1.758v8.943h-4.141zM36.057 323.434a8.746 8.746 0 01.326 3.418c-.128 1.102-.483 2.176-1.068 3.223a8.975 8.975 0 01-2.26 2.625c-.972.75-1.995 1.282-3.07 1.597a9.154 9.154 0 01-3.447.31 8.52 8.52 0 01-3.297-.998 8.407 8.407 0 01-2.644-2.161 8.517 8.517 0 01-1.594-3.023 8.521 8.521 0 01-.287-3.406 8.398 8.398 0 011.061-3.244 8.558 8.558 0 012.232-2.641 8.911 8.911 0 013.077-1.575 8.96 8.96 0 013.465-.328c1.153.112 2.25.45 3.29 1.013a8.739 8.739 0 012.654 2.157 8.697 8.697 0 011.562 3.033zm-7.15 7.18c1.198-.351 2.07-1.091 2.615-2.221.27-.56.418-1.144.446-1.751.027-.607-.06-1.253-.26-1.935-.388-1.33-1.11-2.329-2.166-2.998-1.068-.658-2.194-.813-3.378-.467-1.213.355-2.082 1.094-2.605 2.218-.523 1.123-.589 2.353-.197 3.689.406 1.388 1.12 2.398 2.14 3.03 1.05.647 2.184.792 3.405.435zm17.722-18.295l1.39 4.751c-.822-.493-1.554-.811-2.195-.954a4.557 4.557 0 00-2.049.114c-1.242.364-2.131 1.085-2.667 2.165a4.68 4.68 0 00-.373 1.15c-.072.376-.09.787-.053 1.234.041.438.124.871.25 1.299.374 1.279 1.078 2.228 2.111 2.849 1.037.603 2.165.727 3.385.369a4.419 4.419 0 001.781-1.029c.47-.445.915-1.104 1.338-1.977l1.394 4.762c-.696.614-1.31 1.065-1.84 1.354a9.314 9.314 0 01-1.997.857 9.325 9.325 0 01-2.511.392 6.58 6.58 0 01-2.302-.344c-1.43-.465-2.63-1.202-3.604-2.21-.986-1.052-1.7-2.33-2.14-3.834-.352-1.206-.473-2.374-.362-3.502.04-.54.134-1.065.285-1.574a9.823 9.823 0 01.694-1.67c.533-1.008 1.22-1.84 2.061-2.497.832-.661 1.826-1.161 2.98-1.499a9.993 9.993 0 012.141-.366c.768-.019 1.528.034 2.283.16zm11.881 7.182c-.255-.872-.681-1.48-1.28-1.826-.613-.372-1.312-.444-2.097-.214-.785.229-1.33.657-1.636 1.283-.316.645-.348 1.395-.097 2.253.253.864.684 1.475 1.293 1.833.586.357 1.275.42 2.067.188.784-.229 1.334-.654 1.65-1.275.322-.623.355-1.37.1-2.242zm1.804-6.49l3.22 11.006-3.563 1.043-.523-1.788c-.292.914-.706 1.643-1.241 2.186-.528.541-1.217.935-2.067 1.184-1.475.432-2.805.238-3.992-.583a5.827 5.827 0 01-1.529-1.587c-.435-.653-.785-1.43-1.049-2.331-.527-1.802-.483-3.364.13-4.687.615-1.324 1.696-2.212 3.243-2.665.829-.242 1.593-.273 2.293-.091.702.165 1.377.555 2.022 1.171l-.53-1.809 3.586-1.049zm19.137 6.348l-1.757-6.005c-.276-.944-.577-1.566-.9-1.865-.356-.299-.821-.364-1.395-.196-.734.215-1.165.613-1.294 1.195-.14.577.022 1.654.483 3.23l1.365 4.664-3.748 1.097-1.757-6.004c-.287-.981-.6-1.607-.94-1.878-.323-.292-.778-.352-1.366-.18-.734.215-1.175.608-1.323 1.18-.139.577.025 1.661.49 3.252l1.365 4.664-3.77 1.103-3.221-11.006 3.814-1.116.561 1.918c.24-.906.603-1.632 1.09-2.177.473-.54 1.124-.932 1.952-1.174.893-.262 1.68-.307 2.362-.135.654.187 1.209.588 1.665 1.204.233-.849.608-1.523 1.124-2.021.503-.518 1.176-.9 2.019-1.147.661-.193 1.27-.253 1.828-.18a3.479 3.479 0 011.547.636c.376.261.686.608.931 1.041.235.396.511 1.14.83 2.229l.07.24 1.844 6.298-3.869 1.133zm5.162-1.511l-4.944-16.89 3.89-1.139 4.944 16.891-3.89 1.138z" fill="#fff"/><path d="M76.973 248.554a22.31 22.31 0 0114.022-12.229c11.871-3.575 34.416-11.048 41.079 0 9.122 15.205-4.851 74.91-4.851 74.91L88 315s-22.688-40.209-11.027-66.446z" fill="#5B5B5B"/><path d="M290.447 232.704v18.123c9.402 0 17.024 7.622 17.024 17.024 0 9.402-7.622 17.024-17.024 17.024v14.059" stroke="#C2C2C2" stroke-width="2"/><circle cx="392.043" cy="233.802" r="17.024" fill="#D3D3D3"/><path opacity=".08" d="M170.616 220.006L299.5 116c5.419-5.172 14.311-3.531 17.525 3.236L329.5 145.5l10.821 20.807c5.139 9.879.718 22.039-9.566 26.312l-123.366 51.26s-21.561 29.131-54.271 33.366l-9.355 21.909c-2.557-.375-3.363-1.278-4.467-3.255v-41.231l7.062-2.591 34.29-13.136-10.032-18.935zM348.017 86.78s14.071-2.685 18.923-22.096c4.852-19.41-5.483-34.826 4.496-37.204 9.978-2.378 14.119 22.937 14.119 22.937s.388 19.8-18.615 44.29l-18.923-7.927z" fill="#000"/><circle cx="285.024" cy="201.024" r="17.024" fill="#C2C2C2"/><path opacity=".2" d="M323.838 47.99c-1.956 15.675-10.043 48.059-43.246 62.488l4.852 8.087s46.206-14.558 57.349-51.762c4.998-16.742 1.812-24.005-3.234-26.949a10.641 10.641 0 00-15.721 8.137z" fill="#fff"/><path d="M294.884 109.393l-148.345 68.478a5.16 5.16 0 00-2.522 6.846l24.546 53.192a5.158 5.158 0 006.845 2.522l148.345-68.478a5.16 5.16 0 002.523-6.846l-24.546-53.192a5.159 5.159 0 00-6.846-2.522z" fill="#DD1350"/><path d="M185.227 208.188l-7.8-17.153 4.886-2.222c.945-.43 1.751-.773 2.417-1.028.674-.26 1.243-.438 1.708-.536a5.77 5.77 0 012.349.006 4.867 4.867 0 012.239 1.159c.655.551 1.185 1.271 1.59 2.162.601 1.32.764 2.551.492 3.693-.257 1.134-.956 2.117-2.096 2.946l7.818 4.787-5.284 2.403-6.99-4.923 3.053 6.713-4.382 1.993zm.269-11.038l.867-.394c1.023-.466 1.685-.969 1.986-1.511.29-.584.274-1.232-.05-1.943-.39-.859-.882-1.371-1.475-1.535-.605-.168-1.418-.019-2.442.446l-.937.426 2.051 4.511zm17.926-6.214c-.369-.624-.866-1.044-1.491-1.259-.626-.215-1.255-.179-1.888.109-.664.302-1.119.731-1.367 1.286-.241.609-.256 1.29-.046 2.043l4.792-2.179zm5.183.485l-8.998 4.092c.443.911.993 1.509 1.65 1.794.681.294 1.45.246 2.31-.145.625-.284 1.105-.648 1.44-1.093a2.51 2.51 0 00.504-1.502l3.716-.162c.041 1.065-.307 2.062-1.044 2.991-.725.933-1.779 1.714-3.162 2.343-2.062.938-3.981 1.113-5.756.525-1.754-.56-3.059-1.782-3.914-3.664-.835-1.836-.912-3.653-.231-5.452.691-1.775 1.994-3.098 3.907-3.968 1.953-.888 3.775-.977 5.465-.265a6.7 6.7 0 012.296 1.628c.661.708 1.237 1.601 1.727 2.679l.09.199zm9.361-5.274c-.426-.938-1.003-1.552-1.729-1.844-.749-.319-1.545-.287-2.388.096-.844.384-1.387.951-1.63 1.703-.251.774-.167 1.622.252 2.544.423.929 1.005 1.546 1.746 1.85.714.306 1.497.266 2.349-.121.843-.384 1.392-.949 1.646-1.696.262-.751.18-1.595-.246-2.532zm.982-7.573l5.381 11.834-3.831 1.742-.874-1.921c-.182 1.072-.529 1.956-1.042 2.651-.506.692-1.216 1.245-2.13 1.661-1.585.721-3.11.717-4.573-.013a6.632 6.632 0 01-1.97-1.536c-.594-.663-1.111-1.479-1.552-2.448-.881-1.937-1.083-3.697-.606-5.281.477-1.584 1.548-2.754 3.212-3.51.89-.405 1.743-.562 2.557-.47.815.072 1.635.402 2.458.989l-.885-1.945 3.855-1.753zm5.304 10.681l-.582-3.581a7.007 7.007 0 002.57.302 6.504 6.504 0 002.4-.568c.531-.241.888-.512 1.072-.813a.863.863 0 00.085-.901c-.238-.523-.966-.664-2.185-.421-.421.089-.744.146-.968.172-1.444.204-2.554.157-3.33-.14-.83-.292-1.446-.879-1.847-1.762-.519-1.14-.502-2.255.048-3.345.524-1.067 1.535-1.942 3.035-2.624.726-.33 1.539-.596 2.437-.797.751-.172 1.676-.262 2.775-.272l.438 3.265a7.506 7.506 0 00-2.088-.083c-.627.05-1.238.21-1.832.48-.484.22-.814.46-.988.718-.171.247-.19.515-.059.804.185.406.895.508 2.132.304.409-.054.617-.083.625-.087 1.622-.247 2.848-.225 3.678.067.829.33 1.457.964 1.883 1.901.55 1.211.53 2.399-.063 3.563-.612 1.183-1.671 2.118-3.179 2.803-1.047.476-2.066.794-3.059.953-.981.163-1.981.184-2.998.062zm17.219-13.739c-.401-.883-.94-1.477-1.616-1.782-.692-.299-1.409-.279-2.151.058-.765.349-1.251.876-1.458 1.583-.221.694-.128 1.491.281 2.389.397.875.925 1.464 1.582 1.769.703.302 1.429.283 2.179-.058.75-.341 1.242-.876 1.476-1.604.196-.711.098-1.496-.293-2.355zm4.148-1.886c.394.867.594 1.751.599 2.654a6.937 6.937 0 01-.504 2.717c-.396.954-.895 1.741-1.498 2.364-.627.653-1.405 1.191-2.335 1.613-.937.427-1.854.66-2.75.7a7.37 7.37 0 01-2.773-.408c-.933-.33-1.716-.808-2.349-1.435-.666-.573-1.202-1.305-1.607-2.196a6.622 6.622 0 01-.609-2.678 6.4 6.4 0 01.48-2.707 7.166 7.166 0 011.509-2.34c.63-.645 1.41-1.179 2.34-1.601.922-.42 1.837-.656 2.745-.711a7.165 7.165 0 012.756.401c.914.291 1.707.76 2.379 1.407a6.624 6.624 0 011.617 2.22zm3.397 5.553l-5.381-11.834 3.819-1.737 1.092 2.402c.113-1.182.434-2.177.963-2.983.516-.772 1.286-1.39 2.309-1.856.773-.351 1.514-.547 2.222-.586.715-.004 1.358.137 1.931.423.542.3.983.679 1.324 1.137.427.588.883 1.413 1.366 2.476l3.079 6.772-4.183 1.902-2.882-6.339c-.437-.96-.902-1.579-1.395-1.854-.5-.291-1.093-.28-1.781.032-.859.391-1.346.999-1.461 1.824-.107.822.166 1.951.819 3.388l2.259 4.968-4.1 1.865zm33.962-15.443l-4.37 1.987-4.38-6.958a38.18 38.18 0 01-.981-1.661 48.147 48.147 0 01-1.118-2.023c.229.877.422 1.882.58 3.017.026.224.056.413.088.568l1.323 9.098-3.116 1.417-5.987-6.978a3.93 3.93 0 00-.369-.44c-.808-.905-1.435-1.713-1.881-2.425.328.888.561 1.555.698 2.002l.332 1.008c.144.443.255.78.331 1.009l2.365 7.875-4.347 1.977-5.152-18.358 4.628-2.104 6.612 7.668c.121.143.201.234.238.274.56.631 1.018 1.234 1.373 1.808-.08-.218-.178-.589-.293-1.111l-.251-1.484-1.399-10.011 4.64-2.11 10.436 15.955zm.84-.382l-7.8-17.153 4.675-2.126 5.978 13.146 5.811-2.642 1.822 4.007-10.486 4.768z" fill="#fff"/><path d="M334.335 30.844l8.668-5.45s28.158-9.625 37.053-.777c8.895 8.848 9.526 42.235-13.116 70.057l-32.185-13.41s.647-16.014-4.706-20.058c-5.354-4.044-11.936-16.175 4.286-30.362z" fill="#5B5B5B"/><path opacity=".2" d="M377.905 22.886c8.28 2.944 21.219 8.8 29.952 18.715a25.879 25.879 0 016.162 20.85l-3.914 26.626h-9.299l.42-24.264a11.941 11.941 0 00-8.393-11.5c-10.044-3.074-25.457-9.9-25.473-22.84a7.927 7.927 0 0110.545-7.587z" fill="#fff"/><path d="M334.755 81.264l-15.753 8.088a11.329 11.329 0 00-5.63 6.83 11.311 11.311 0 00-.392 4.5 11.306 11.306 0 001.397 4.296l14.151 24.506 6.89-4.853-8.086-22.355a2.796 2.796 0 011.957-3.688l15.704-3.833-2.798 7.441a15.599 15.599 0 001.617 14.202l14.556 21.708 5.515-3.381-7.003-19.233a12.295 12.295 0 012.474-12.504l7.585-8.314-32.184-13.41z" fill="#0E0E0E"/><circle cx="278.914" cy="190.967" r="17.024" fill="#DD1350"/><path d="M127.158 311.283l-5.257 68.602h-8.296l-7.408-53.299-18.34-12.213 39.301-3.09z" fill="#0E0E0E"/><path d="M87.857 314.373l-11.45 65.512h8.895l19.214-54.415-16.659-11.097z" fill="#0E0E0E"/><path d="M166 241l-.5-9 5.5 8.5-5 .5z" fill="#000" fill-opacity=".15"/><path d="M108.251 245.464a11.322 11.322 0 0110.61-14.768c5.078-.162 10.917.711 15.397 4.335 9.978 8.088 42.696 13.587 72.228-13.442l5.677 8.719s-33.543 43.674-86.073 31.122a24.57 24.57 0 01-10.776-5.495 24.576 24.576 0 01-6.852-9.969c-.081-.162-.146-.34-.211-.502z" fill="#7C7C7C"/><path d="M360.682 124.882L352 128.5l-3-36 30.5.5-14.175 12.357a11.001 11.001 0 00-3.318 11.417l.972 3.28a3.999 3.999 0 01-2.297 4.828z" fill="#000" fill-opacity=".29"/></svg>