<svg width="61" height="61" fill="none" xmlns="http://www.w3.org/2000/svg"><g clip-path="url(#clip0)" fill="#DD1350"><path d="M9.0991 53.8732h36.2417l-1.7309-5.6044 4.1403 3.5532 3.7948 3.4008L58.4583 61V6.2906C58.2855 2.89 55.3575 0 51.728 0L9.1118.0076c-3.627 0-6.5702 2.895-6.5702 6.2957V47.58c0 3.5863 2.9382 6.2932 6.5575 6.2932zm26.8095-39.4289l-.0839.0305.0306-.0305h.0533zm-19.3954 3.2254c4.6588-3.3906 8.9771-3.2279 8.9771-3.2279l.3482.3431c-5.7009 1.3598-8.2858 3.9065-8.2858 3.9065s.6913-.338 1.8986-.854c7.6784-3.0195 16.0634-2.8009 23.8256 1.0218 0 0-2.5899-2.3816-7.9401-3.9066l.4727-.4651c.7396.0025 4.6538.1398 8.8425 3.2025 0 0 4.6868 8.0062 4.6868 17.8425-.155-.1881-2.9077 4.2344-9.9913 4.3869 0 0-1.1997-1.3572-2.0537-2.5416 4.1429-1.1895 5.6934-3.5686 5.6934-3.5686-1.3598.8566-2.6002 1.3649-3.6067 1.8733-1.5478.6811-3.0983 1.0166-4.6461 1.3598-7.3302 1.1895-11.4452-.8007-15.3339-2.3791l-1.3293-.676s1.5479 2.379 5.5256 3.5685c-1.0446 1.192-2.0791 2.5467-2.0791 2.5467-7.0811-.1677-9.6634-4.5902-9.6634-4.5902 0-9.8515 4.6589-17.8425 4.6589-17.8425z"/><path d="M36.3662 32.4596c1.8071 0 3.2787-1.525 3.2787-3.4058 0-1.8682-1.464-3.3932-3.2787-3.3932v.0077c-1.7995 0-3.2737 1.5199-3.2788 3.4007 0 1.8656 1.4716 3.3906 3.2788 3.3906zM24.6287 32.4596c1.8071 0 3.2788-1.525 3.2788-3.4058 0-1.8682-1.4615-3.3932-3.2686-3.3932l-.0102.0077c-1.8071 0-3.2787 1.5199-3.2787 3.4007 0 1.8656 1.4716 3.3906 3.2787 3.3906z"/></g><defs><clipPath id="clip0"><path fill="#fff" d="M0 0h61v61H0z"/></clipPath></defs></svg>