<svg width="233" height="61" fill="none" xmlns="http://www.w3.org/2000/svg"><path d="M83.914 53.884h4.14v1.998h-6.66V43.318h2.52v10.566zm10.692-8.532v3.15h4.23V50.5h-4.23v3.33h4.77v2.052h-7.29V43.3h7.29v2.052h-4.77zm17.194 8.136h-5.004l-.828 2.394h-2.646L107.84 43.3h2.934l4.518 12.582h-2.664l-.828-2.394zm-.684-2.016l-1.818-5.256-1.818 5.256h3.636zm14.775 4.41l-2.772-4.896h-1.188v4.896h-2.52V43.318h4.716c.972 0 1.8.174 2.484.522.684.336 1.194.798 1.53 1.386.348.576.522 1.224.522 1.944a3.78 3.78 0 01-.72 2.25c-.48.66-1.194 1.116-2.142 1.368l3.006 5.094h-2.916zm-3.96-6.786h2.106c.684 0 1.194-.162 1.53-.486.336-.336.504-.798.504-1.386 0-.576-.168-1.02-.504-1.332-.336-.324-.846-.486-1.53-.486h-2.106v3.69zm22.187 6.786h-2.52l-5.706-8.622v8.622h-2.52V43.3h2.52l5.706 8.64V43.3h2.52v12.582zm7.44-12.564v12.564h-2.52V43.318h2.52zm15.666 12.564h-2.52l-5.706-8.622v8.622h-2.52V43.3h2.52l5.706 8.64V43.3h2.52v12.582zm13.668-8.784a2.95 2.95 0 00-1.188-1.206c-.504-.276-1.092-.414-1.764-.414-.744 0-1.404.168-1.98.504a3.481 3.481 0 00-1.35 1.44c-.324.624-.486 1.344-.486 2.16 0 .84.162 1.572.486 2.196a3.563 3.563 0 001.386 1.44c.588.336 1.272.504 2.052.504.96 0 1.746-.252 2.358-.756.612-.516 1.014-1.23 1.206-2.142h-4.32v-1.926h6.804v2.196a5.902 5.902 0 01-1.08 2.43 6.162 6.162 0 01-2.142 1.8c-.864.444-1.836.666-2.916.666-1.212 0-2.31-.27-3.294-.81a6.107 6.107 0 01-2.304-2.286c-.552-.972-.828-2.076-.828-3.312 0-1.236.276-2.34.828-3.312a5.94 5.94 0 012.304-2.286c.984-.552 2.076-.828 3.276-.828 1.416 0 2.646.348 3.69 1.044 1.044.684 1.764 1.65 2.16 2.898h-2.898zm16.738 6.786h4.14v1.998h-6.66V43.318h2.52v10.566zm15.875-.396h-5.004l-.828 2.394h-2.646l4.518-12.582h2.934l4.518 12.582h-2.664l-.828-2.394zm-.684-2.016l-1.818-5.256-1.818 5.256h3.636zm15.423-2.034c.708.132 1.29.486 1.746 1.062.456.576.684 1.236.684 1.98 0 .672-.168 1.266-.504 1.782-.324.504-.798.9-1.422 1.188-.624.288-1.362.432-2.214.432h-5.418V43.318h5.184c.852 0 1.584.138 2.196.414.624.276 1.092.66 1.404 1.152.324.492.486 1.05.486 1.674 0 .732-.198 1.344-.594 1.836-.384.492-.9.84-1.548 1.044zm-4.608-.936h2.304c.6 0 1.062-.132 1.386-.396.324-.276.486-.666.486-1.17 0-.504-.162-.894-.486-1.17-.324-.276-.786-.414-1.386-.414h-2.304v3.15zm2.538 5.328c.612 0 1.086-.144 1.422-.432.348-.288.522-.696.522-1.224 0-.54-.18-.96-.54-1.26-.36-.312-.846-.468-1.458-.468h-2.484v3.384h2.538z" fill="#0E0E0E" opacity=".2"/><path d="M87.038 13.05c.67-1.029 1.51-1.834 2.516-2.415 1.007-.604 2.125-.906 3.355-.906v6.073h-1.577c-1.431 0-2.505.313-3.22.939-.716.604-1.074 1.678-1.074 3.221v8.69H81.3V9.93h5.738v3.12zm24.584 5.939c0 .537-.033 1.096-.1 1.678H98.537c.09 1.163.459 2.057 1.107 2.684.671.604 1.488.906 2.45.906 1.431 0 2.426-.604 2.986-1.812h6.106a8.264 8.264 0 01-1.711 3.322c-.805.984-1.823 1.755-3.053 2.315-1.231.559-2.606.838-4.127.838-1.834 0-3.467-.391-4.899-1.174-1.431-.783-2.55-1.901-3.355-3.355-.805-1.454-1.208-3.154-1.208-5.1 0-1.946.392-3.646 1.174-5.1.806-1.454 1.924-2.572 3.356-3.355 1.431-.783 3.075-1.174 4.932-1.174 1.812 0 3.422.38 4.831 1.14a8.072 8.072 0 013.288 3.255c.806 1.409 1.208 3.053 1.208 4.932zm-5.871-1.51c0-.984-.336-1.767-1.007-2.348-.671-.582-1.51-.873-2.516-.873-.962 0-1.779.28-2.45.839-.648.56-1.05 1.353-1.207 2.382h7.18zm6.08 1.778c0-1.923.358-3.612 1.073-5.066.738-1.454 1.734-2.572 2.986-3.355 1.253-.783 2.651-1.174 4.194-1.174 1.32 0 2.472.268 3.456.805 1.007.537 1.779 1.241 2.315 2.114V9.93h5.738v18.722h-5.738v-2.65c-.559.872-1.342 1.576-2.348 2.113-.984.537-2.136.805-3.456.805-1.521 0-2.908-.391-4.161-1.174-1.252-.805-2.248-1.935-2.986-3.389-.715-1.476-1.073-3.176-1.073-5.1zm14.024.034c0-1.432-.402-2.561-1.207-3.389-.783-.827-1.745-1.241-2.886-1.241s-2.114.414-2.919 1.241c-.783.806-1.174 1.924-1.174 3.355 0 1.432.391 2.573 1.174 3.423.805.827 1.778 1.241 2.919 1.241s2.103-.414 2.886-1.241c.805-.828 1.207-1.957 1.207-3.389zm15.827 9.63c-1.633 0-3.087-.28-4.362-.84-1.274-.559-2.281-1.32-3.019-2.28a6.138 6.138 0 01-1.242-3.289h5.671c.067.649.369 1.174.906 1.577.536.402 1.196.604 1.979.604.716 0 1.264-.134 1.644-.403.403-.29.604-.66.604-1.107 0-.537-.279-.928-.839-1.174-.559-.269-1.465-.56-2.717-.873-1.342-.313-2.461-.637-3.356-.973a6.032 6.032 0 01-2.315-1.644c-.648-.76-.973-1.778-.973-3.053 0-1.074.291-2.047.873-2.919.604-.895 1.476-1.6 2.617-2.114 1.163-.514 2.539-.771 4.127-.771 2.348 0 4.194.581 5.536 1.744 1.364 1.163 2.147 2.707 2.348 4.63h-5.301c-.089-.648-.38-1.163-.872-1.543-.47-.38-1.096-.57-1.879-.57-.671 0-1.186.134-1.544.402-.357.246-.536.593-.536 1.04 0 .537.279.94.838 1.208.582.269 1.477.537 2.685.805 1.386.358 2.516.716 3.388 1.074.873.336 1.633.895 2.282 1.678.671.76 1.018 1.79 1.04 3.087a4.94 4.94 0 01-.939 2.952c-.604.85-1.488 1.521-2.651 2.013-1.141.492-2.472.738-3.993.738zm17.938 0c-1.834 0-3.49-.392-4.966-1.175-1.454-.783-2.606-1.901-3.456-3.355-.827-1.454-1.241-3.154-1.241-5.1 0-1.924.425-3.613 1.275-5.066.85-1.477 2.013-2.606 3.489-3.39 1.476-.782 3.132-1.173 4.966-1.173s3.489.391 4.966 1.174c1.476.783 2.639 1.912 3.489 3.389.85 1.454 1.275 3.142 1.275 5.066s-.436 3.624-1.309 5.1a8.627 8.627 0 01-3.523 3.355c-1.476.783-3.131 1.174-4.965 1.174zm0-4.966c1.096 0 2.024-.403 2.785-1.208.782-.805 1.174-1.957 1.174-3.456 0-1.499-.38-2.65-1.141-3.456-.738-.805-1.655-1.208-2.751-1.208-1.119 0-2.047.403-2.785 1.208-.738.783-1.107 1.935-1.107 3.456 0 1.499.358 2.65 1.073 3.456.739.805 1.656 1.208 2.752 1.208zm22.571-14.226c2.192 0 3.937.715 5.234 2.147 1.32 1.41 1.979 3.355 1.979 5.838v10.938h-5.703V18.486c0-1.253-.325-2.226-.973-2.92-.649-.693-1.521-1.04-2.617-1.04s-1.969.347-2.617 1.04c-.649.694-.973 1.667-.973 2.92v10.166h-5.738V9.93h5.738v2.483c.581-.828 1.364-1.476 2.348-1.946.984-.492 2.092-.738 3.322-.738z" fill="#0E0E0E"/><path d="M197.451 12.58c.537-.872 1.309-1.576 2.315-2.113 1.007-.537 2.159-.805 3.456-.805 1.544 0 2.942.391 4.194 1.174 1.253.783 2.237 1.901 2.953 3.355.738 1.454 1.107 3.143 1.107 5.066 0 1.924-.369 3.624-1.107 5.1-.716 1.454-1.7 2.584-2.953 3.39-1.252.782-2.65 1.173-4.194 1.173-1.32 0-2.472-.257-3.456-.771-.984-.537-1.756-1.242-2.315-2.114v2.617h-5.737V3.823h5.737v8.758zm8.187 6.677c0-1.431-.403-2.55-1.208-3.355-.783-.827-1.756-1.241-2.919-1.241-1.141 0-2.114.414-2.919 1.241-.783.828-1.174 1.957-1.174 3.389 0 1.431.391 2.561 1.174 3.389.805.827 1.778 1.241 2.919 1.241s2.114-.414 2.919-1.241c.805-.85 1.208-1.991 1.208-3.423zm12.908-6.207c.671-1.029 1.51-1.834 2.516-2.415 1.007-.604 2.125-.906 3.355-.906v6.073h-1.577c-1.431 0-2.505.313-3.221.939-.715.604-1.073 1.678-1.073 3.221v8.69h-5.738V9.93h5.738v3.12zm9.62 15.87c-1.006 0-1.834-.29-2.483-.872a2.959 2.959 0 01-.939-2.214c0-.895.313-1.644.939-2.248.649-.604 1.477-.906 2.483-.906.984 0 1.79.302 2.416.906.649.604.973 1.353.973 2.248 0 .872-.324 1.61-.973 2.214-.626.582-1.432.872-2.416.872zM.373 40.904l2.76 17.979a2.095 2.095 0 004.166-.318V47.989c0-1.058.637-1.997 1.56-2.516 3.572-2.007 5.053-4.773 5.746-10.597.165-1.39 1.317-2.472 2.716-2.472h14.705c1.042 0 1.99.606 2.428 1.552L46.048 59.01a1.867 1.867 0 003.508-1.225l-5.43-22.342c-.389-1.596.759-3.09 2.355-3.482 2.473-.605 4.312-1.976 6.275-5.695.778-1.475 1.092-3.143 1.092-4.81V9.248c.068-1.373.312-2.168 1.272-3.028.416-.373.975-.534 1.534-.534h2.032c.822 0 1.564.685 2.264 1.113.86.526 1.494-.662 1.494-1.67V3.094c0-.214-.024-.429-.081-.635C61.952.976 61.413.465 60.355.12a2.266 2.266 0 00-.702-.102H42.9c1.068 1.498 2.044 1.733 4.541.971v14.482c0 .328-.057.656-.187.957-.928 2.162-1.899 2.5-3.726 1.88a2.396 2.396 0 01-1.058-.75L31.14 3.985c-4.652-5.376-7.497-5.204-12.822-.146-.1.095-.195.201-.279.311L3.263 23.534a2.676 2.676 0 00-.474 1l-.667 2.788a1.256 1.256 0 001.68 1.462 1.256 1.256 0 011.714 1.17v3.325c0 .487-.13.968-.394 1.377-.98 1.523-1.819 2.398-2.824 2.974-1.206.69-2.135 1.9-1.924 3.274z" fill="#DD1350"/><path d="M14.298 58.706l-3.133-11.658c-.28-1.037.102-2.13.907-2.843 3.108-2.75 4.16-5.169 4.495-9.462a.91.91 0 01.9-.845h3.754c.56 0 .983.512.86 1.059-1.049 4.66-2.676 6.774-6.178 9.74l2.367 13.118a2.037 2.037 0 01-3.972.89zM29.395 58.025l3.848-20.882c.158-.86 1.33-1.002 1.69-.207l2.97 6.558c.292.644.317 1.376.07 2.038l-5.02 13.476a1.853 1.853 0 01-3.558-.983z" fill="#DD1350"/><path d="M12.935 43.488c2.482-2.69 3.43-4.995 3.554-8.697a.916.916 0 01.906-.893h2.676c-2.728 6.051-4.779 8.814-8.92 13.158-.446-1.338.223-2.453 1.784-3.568z" fill="#000" fill-opacity=".15"/></svg>