<svg width="55" height="54" fill="none" xmlns="http://www.w3.org/2000/svg"><rect width="55" height="54" rx="6" fill="#DD1350"/><g clip-path="url(#clip0)"><path d="M43 17.8881c-1.1528.5057-2.3812.8408-3.6619 1.0036 1.3175-.7866 2.3231-2.0228 2.7958-3.5127-1.2283.7324-2.5846 1.2497-4.03 1.5384-1.1663-1.242-2.8287-2.0112-4.6422-2.0112-3.5185 0-6.3511 2.8559-6.3511 6.357 0 .5037.0426.9881.1472 1.4492-5.2836-.2577-9.9587-2.79-13.0994-6.6475-.5483.9513-.87 2.0402-.87 3.2124 0 2.201 1.1335 4.152 2.823 5.2816-1.0211-.0194-2.0228-.3158-2.8714-.7828v.0698c0 3.0883 2.2029 5.6536 5.0917 6.2445-.5173.1415-1.0811.2093-1.6662.2093-.4069 0-.8176-.0233-1.2032-.1085.8234 2.5168 3.1601 4.3671 5.9385 4.4272-2.1623 1.6914-4.9077 2.7105-7.8799 2.7105-.5211 0-1.021-.0232-1.5209-.0872 2.8152 1.8155 6.1516 2.8521 9.7495 2.8521 11.6948 0 18.0885-9.6876 18.0885-18.0847 0-.2809-.0097-.5522-.0232-.8215 1.2613-.8951 2.3211-2.013 3.1852-3.2995z" fill="#FAFAFA"/></g><defs><clipPath id="clip0"><path fill="#fff" transform="translate(12 12)" d="M0 0h31v31H0z"/></clipPath></defs></svg>